<svg xmlns="http://www.w3.org/2000/svg" xml:space="preserve" fill="#eb3912" viewBox="0 0 100 90.744"><path d="M84.975 8.034c.686.507 1.147.809 1.563 1.163 1.4 1.2 1.972 2.638 1.508 4.52-.36 1.471 1.35 3.192 2.88 2.88 1.918-.392 3.363.183 4.641 1.598 1.137 1.256 2.396 2.392 3.572 3.61 1.142 1.18 1.158 2.417-.009 3.544-.779.752-1.589 1.569-2.545 2.015-.681.319-1.635.132-2.459.062-.877-.075-1.746-.416-2.615-.398-3.212.067-5.173 2.731-4.129 6.059.895 2.845-.236 4.626-2.236 6.258-.934.759-2.069.748-2.992-.134-1.589-1.521-3.161-3.065-4.66-4.676-.884-.948-1.098-2.138-.802-3.436.371-1.633-1.08-3.488-2.658-3.174-2.202.437-3.791-.294-5.127-1.938-.158-.196-.352-.363-.543-.533-.06-.053-.146-.077-.315-.16-.27.249-.585.51-.872.797Q52.9 40.363 38.627 54.64c-2.896 2.897-3.514 6.896-1.552 10.463a88 88 0 0 0 3.065 5.103c3.306 5.152 2.451 11.461-2.137 15.509-4.222 3.724-10.771 3.695-15.26-.068-.221-.186-.45-.359-.71-.567-3.388 4.708-7.848 6.725-13.489 5.124-4.489-1.271-7.301-4.41-8.132-9.003-.981-5.426 1.224-9.549 5.895-12.581-.367-.27-.676-.518-1.005-.73-5.362-3.521-6.914-10.733-3.458-16.105 3.506-5.451 10.692-7.031 16.179-3.589 1.826 1.142 3.662 2.284 5.561 3.297 3.402 1.816 7.383 1.158 10.127-1.581q14.817-14.81 29.629-29.626L82.463 1.162c1.547-1.545 1.979-1.544 3.521-.003q.946.94 1.887 1.886c.773.781.737 1.599-.006 2.342-.838.83-1.738 1.593-2.89 2.647M18.418 79.076c.021-3.578-2.891-6.579-6.442-6.641-3.539-.062-6.567 2.899-6.61 6.46-.043 3.662 2.897 6.697 6.494 6.705 3.549.006 6.539-2.969 6.558-6.524m5.489-2.459c-.048 3.725 2.82 6.705 6.475 6.728 3.519.025 6.516-2.899 6.562-6.401.048-3.689-2.859-6.699-6.492-6.722-3.539-.023-6.498 2.869-6.545 6.395m-12.12-25.049c-3.667-.011-6.641 2.937-6.625 6.557.017 3.583 2.946 6.478 6.569 6.479 3.586.006 6.547-2.922 6.56-6.488.014-3.569-2.937-6.539-6.504-6.548"/></svg>