<svg xmlns="http://www.w3.org/2000/svg" viewBox="0 0 511.084 77.296">
    <path fill="#eb3912" fill-rule="evenodd" stroke="#eb3912" stroke-linecap="round" stroke-width=".945" d="M179.785 76.319V0h64.99v13.574h-49.511v15.235h43.847v12.744h-43.847v21.24h50.537v13.526zm76.026 0 42.285-54.2 7.324-8.935h-45.85V0h74.659l-42.725 53.662-7.617 9.473h47.949v13.184zm87.793-32.422V0h15.478v42.041a32 32 0 0 0 .332 4.745 24 24 0 0 0 1.084 4.459 18.4 18.4 0 0 0 2.605 4.951 17 17 0 0 0 1.619 1.861 17.5 17.5 0 0 0 5.206 3.529 21 21 0 0 0 1.752.695 25 25 0 0 0 4.492 1.08q2.417.36 5.176.36 5.423 0 9.574-1.417l.069-.023q4.175-1.441 6.983-4.224a17.4 17.4 0 0 0 3.848-5.824 21 21 0 0 0 .375-.988 24.4 24.4 0 0 0 1.14-4.858 33 33 0 0 0 .276-4.346V0h15.479v43.897a38.6 38.6 0 0 1-.849 8.237 32 32 0 0 1-1.69 5.435 29 29 0 0 1-7.373 10.546 31.6 31.6 0 0 1-7.972 5.237 39 39 0 0 1-3.869 1.551 43.4 43.4 0 0 1-8.382 1.918 58 58 0 0 1-7.609.474 58 58 0 0 1-8.24-.561 43 43 0 0 1-7.752-1.831 36.5 36.5 0 0 1-7.195-3.325 30.3 30.3 0 0 1-4.645-3.462 29 29 0 0 1-7.373-10.547 33.7 33.7 0 0 1-2.337-9.537 41 41 0 0 1-.202-4.135ZM88.33 76.319V0h38.818a71 71 0 0 1 6.999.326q4.51.447 8.236 1.505a35 35 0 0 1 5.475 2.036 25.6 25.6 0 0 1 5.218 3.262q4.248 3.467 6.323 8.447a26.7 26.7 0 0 1 1.784 6.741 34 34 0 0 1 .292 4.539 31.6 31.6 0 0 1-.73 6.873 29 29 0 0 1-.296 1.208 24 24 0 0 1-3.149 7.055 24 24 0 0 1-5.14 5.575l-.207.163a27.3 27.3 0 0 1-4.837 2.993 33 33 0 0 1-2.731 1.182l16.601 24.414h-18.945l-14.355-21.68h-.44l-23.437-.049v21.729zm349.609 0V0h38.819a71 71 0 0 1 6.998.326q4.51.447 8.236 1.505a35 35 0 0 1 5.475 2.036 25.6 25.6 0 0 1 5.219 3.262q4.248 3.467 6.323 8.447a26.7 26.7 0 0 1 1.783 6.741 34 34 0 0 1 .292 4.539 31.6 31.6 0 0 1-.73 6.873 29 29 0 0 1-.295 1.208 24 24 0 0 1-3.15 7.055 24 24 0 0 1-5.14 5.575l-.206.163a27.3 27.3 0 0 1-4.838 2.993 33 33 0 0 1-2.731 1.182l16.602 24.414H491.65l-14.355-21.68h-.44l-23.437-.049v21.729zm-409.765 0V13.574H0V0h71.826v13.574H43.652v62.745zm75.635-35.108h23.73a32 32 0 0 0 3.635-.196q1.892-.217 3.527-.673a19 19 0 0 0 .528-.156 18.3 18.3 0 0 0 2.985-1.211 14 14 0 0 0 2.533-1.67 11.54 11.54 0 0 0 3.32-4.517 14.5 14.5 0 0 0 .992-3.947 18 18 0 0 0 .107-1.985q0-6.397-4.395-9.888-3.155-2.507-8.601-3.214a36 36 0 0 0-4.631-.277h-23.73zm349.609 0h23.73a32 32 0 0 0 3.635-.196q1.892-.217 3.528-.673a19 19 0 0 0 .528-.156 18.3 18.3 0 0 0 2.984-1.211 14 14 0 0 0 2.533-1.67 11.54 11.54 0 0 0 3.321-4.517 14.5 14.5 0 0 0 .991-3.947 18 18 0 0 0 .107-1.985q0-6.397-4.394-9.888-3.155-2.507-8.602-3.214a36 36 0 0 0-4.631-.277h-23.73z" font-size="12" style="stroke:#eb3912;stroke-width:.25mm;fill:#eb3912" vector-effect="non-scaling-stroke"/>
</svg>
